<?xml version="1.0" standalone="no"?>
<!DOCTYPE svg PUBLIC "-//W3C//DTD SVG 20010904//EN"
 "http://www.w3.org/TR/2001/REC-SVG-20010904/DTD/svg10.dtd">
<svg version="1.0" xmlns="http://www.w3.org/2000/svg"
 width="700.000000pt" height="700.000000pt" viewBox="0 0 700.000000 700.000000"
 preserveAspectRatio="xMidYMid meet">
<metadata>
Created by potrace 1.14, written by Peter Selinger 2001-2017
</metadata>
<g transform="translate(0.000000,700.000000) scale(0.100000,-0.100000)"
fill="#000000" stroke="none">
<path d="M3305 6993 c-605 -32 -1225 -238 -1730 -574 -223 -149 -354 -256
-545 -448 -194 -194 -301 -325 -449 -546 -299 -450 -491 -977 -557 -1535 -24
-198 -24 -582 0 -780 79 -671 332 -1277 752 -1805 113 -141 388 -416 529 -529
772 -615 1736 -877 2708 -735 604 87 1196 346 1682 735 142 114 417 388 529
529 419 526 672 1134 752 1805 24 198 24 582 0 780 -47 400 -154 771 -322
1120 -182 378 -385 663 -683 960 -287 286 -546 476 -891 649 -554 280 -1156
407 -1775 374z m-853 -1578 c16 -38 27 -74 25 -80 -3 -5 -234 -102 -514 -214
l-510 -204 -5 -1596 c-3 -878 -4 -1598 -3 -1599 2 -2 445 173 984 390 l981
393 0 1088 c0 598 -2 1087 -4 1087 -2 0 -284 -112 -626 -250 -343 -137 -626
-250 -630 -250 -7 0 -73 151 -67 156 1 1 317 129 702 284 549 220 707 280 731
276 18 -2 335 -129 706 -282 l675 -277 -31 -79 c-17 -43 -34 -78 -38 -78 -4 0
-281 113 -614 250 -334 138 -611 250 -616 250 -4 0 -7 -489 -6 -1087 l3 -1086
80 -33 c144 -60 1876 -754 1880 -754 3 0 5 719 5 1598 l0 1598 -507 203 c-280
112 -512 207 -516 211 -10 8 46 153 61 158 12 4 1054 -413 1091 -437 53 -34
51 50 51 -1762 0 -1859 5 -1727 -64 -1764 -20 -11 -45 -16 -67 -13 -19 2 -501
192 -1071 422 l-1038 417 -637 -257 c-351 -141 -821 -330 -1045 -420 -249
-100 -420 -164 -441 -164 -37 0 -79 27 -99 63 -9 17 -11 413 -9 1712 3 1832 0
1737 55 1768 45 25 1072 436 1085 434 8 -1 27 -33 43 -72z"/>
</g>
</svg>
