<svg width="1200" height="1200" viewBox="0 0 1200 1200" fill="none" xmlns="http://www.w3.org/2000/svg">
<circle cx="600" cy="600" r="600" fill="white"/>
<path d="M600 770.5V387.5" stroke="#FFB13D" stroke-width="30"/>
<path d="M420 272L236.626 345.743C234.736 346.503 233.497 348.333 233.491 350.369L232.019 921.079C232.01 924.626 235.594 927.055 238.885 925.731L598.136 781.25C599.332 780.769 600.668 780.768 601.865 781.249L961.637 925.743C964.922 927.063 968.5 924.644 968.5 921.104V350.378C968.5 348.337 967.259 346.501 965.366 345.739L782 272" stroke="black" stroke-width="30"/>
<path d="M362 470.5L598.945 375.259C600.155 374.772 601.507 374.778 602.713 375.274L834 470.5" stroke="#FFB13D" stroke-width="30"/>
</svg>
