<svg width="1800" height="630" viewBox="0 0 1800 630" fill="none" xmlns="http://www.w3.org/2000/svg">
<rect width="1800" height="630" rx="100" fill="white"/>
<path d="M447 417.3V187.5" stroke="#FFB13D" stroke-width="20"/>
<path d="M304 237.1L445.412 180.259C446.622 179.772 447.974 179.778 449.18 180.274L587.2 237.1" stroke="#FFB13D" stroke-width="20"/>
<path d="M338.8 118L230.026 161.743C228.136 162.503 226.897 164.333 226.891 166.369L226.019 504.479C226.01 508.026 229.594 510.455 232.885 509.131L444.936 423.85C446.132 423.369 447.468 423.368 448.665 423.849L661.037 509.143C664.322 510.463 667.9 508.044 667.9 504.504V166.378C667.9 164.337 666.659 162.501 664.766 161.739L556 118" stroke="black" stroke-width="20"/>
<path d="M918.579 260.909V370H901.001L849.598 295.692H848.693V370H828.931V260.909H846.616L897.965 335.27H898.924V260.909H918.579ZM990.482 371.598C982.279 371.598 975.194 369.893 969.228 366.484C963.298 363.04 958.735 358.175 955.539 351.889C952.343 345.568 950.745 338.129 950.745 329.57C950.745 321.154 952.343 313.768 955.539 307.411C958.77 301.019 963.28 296.048 969.068 292.496C974.857 288.91 981.657 287.116 989.47 287.116C994.512 287.116 999.271 287.933 1003.75 289.567C1008.26 291.165 1012.23 293.651 1015.68 297.024C1019.16 300.398 1021.89 304.695 1023.88 309.915C1025.87 315.099 1026.86 321.278 1026.86 328.452V334.364H959.8V321.367H1008.38C1008.34 317.674 1007.55 314.389 1005.98 311.513C1004.42 308.601 1002.24 306.31 999.431 304.641C996.661 302.972 993.429 302.138 989.736 302.138C985.794 302.138 982.332 303.097 979.349 305.014C976.366 306.896 974.04 309.382 972.371 312.472C970.737 315.526 969.903 318.881 969.867 322.539V333.885C969.867 338.643 970.737 342.727 972.478 346.136C974.218 349.51 976.65 352.102 979.775 353.913C982.9 355.689 986.558 356.577 990.748 356.577C993.554 356.577 996.093 356.186 998.365 355.405C1000.64 354.588 1002.61 353.398 1004.28 351.836C1005.95 350.273 1007.21 348.338 1008.06 346.03L1026.06 348.054C1024.93 352.812 1022.76 356.967 1019.57 360.518C1016.41 364.034 1012.36 366.768 1007.42 368.722C1002.48 370.639 996.838 371.598 990.482 371.598ZM1072.19 288.182L1088.7 318.384L1105.48 288.182H1125.88L1101.22 329.091L1126.3 370H1106.01L1088.7 340.543L1071.55 370H1051.09L1076.02 329.091L1051.73 288.182H1072.19ZM1156.65 370V260.909H1176.41V353.434H1224.45V370H1156.65ZM1255.75 370V288.182H1275.04V370H1255.75ZM1265.45 276.57C1262.39 276.57 1259.77 275.558 1257.57 273.533C1255.36 271.474 1254.26 269.006 1254.26 266.129C1254.26 263.217 1255.36 260.749 1257.57 258.725C1259.77 256.665 1262.39 255.636 1265.45 255.636C1268.54 255.636 1271.17 256.665 1273.33 258.725C1275.53 260.749 1276.64 263.217 1276.64 266.129C1276.64 269.006 1275.53 271.474 1273.33 273.533C1271.17 275.558 1268.54 276.57 1265.45 276.57ZM1310.72 370V260.909H1330V301.712H1330.8C1331.79 299.723 1333.2 297.61 1335.01 295.373C1336.82 293.1 1339.27 291.165 1342.36 289.567C1345.45 287.933 1349.39 287.116 1354.18 287.116C1360.5 287.116 1366.2 288.732 1371.28 291.964C1376.4 295.16 1380.44 299.901 1383.43 306.186C1386.45 312.436 1387.96 320.107 1387.96 329.197C1387.96 338.182 1386.48 345.817 1383.53 352.102C1380.59 358.388 1376.57 363.182 1371.5 366.484C1366.42 369.787 1360.66 371.438 1354.24 371.438C1349.55 371.438 1345.66 370.657 1342.57 369.094C1339.48 367.532 1337 365.65 1335.11 363.448C1333.27 361.211 1331.83 359.098 1330.8 357.109H1329.68V370H1310.72ZM1329.63 329.091C1329.63 334.382 1330.37 339.016 1331.86 342.994C1333.39 346.971 1335.58 350.078 1338.42 352.315C1341.29 354.517 1344.77 355.618 1348.86 355.618C1353.12 355.618 1356.69 354.482 1359.56 352.209C1362.44 349.901 1364.61 346.758 1366.06 342.781C1367.55 338.768 1368.3 334.205 1368.3 329.091C1368.3 324.013 1367.57 319.503 1366.12 315.561C1364.66 311.619 1362.49 308.53 1359.62 306.293C1356.74 304.055 1353.15 302.937 1348.86 302.937C1344.74 302.937 1341.24 304.02 1338.36 306.186C1335.49 308.352 1333.3 311.388 1331.81 315.295C1330.36 319.201 1329.63 323.8 1329.63 329.091ZM1455.57 371.598C1447.37 371.598 1440.28 369.893 1434.32 366.484C1428.39 363.04 1423.82 358.175 1420.63 351.889C1417.43 345.568 1415.83 338.129 1415.83 329.57C1415.83 321.154 1417.43 313.768 1420.63 307.411C1423.86 301.019 1428.37 296.048 1434.16 292.496C1439.94 288.91 1446.75 287.116 1454.56 287.116C1459.6 287.116 1464.36 287.933 1468.83 289.567C1473.34 291.165 1477.32 293.651 1480.77 297.024C1484.25 300.398 1486.98 304.695 1488.97 309.915C1490.96 315.099 1491.95 321.278 1491.95 328.452V334.364H1424.89V321.367H1473.47C1473.43 317.674 1472.63 314.389 1471.07 311.513C1469.51 308.601 1467.32 306.31 1464.52 304.641C1461.75 302.972 1458.52 302.138 1454.82 302.138C1450.88 302.138 1447.42 303.097 1444.44 305.014C1441.45 306.896 1439.13 309.382 1437.46 312.472C1435.83 315.526 1434.99 318.881 1434.96 322.539V333.885C1434.96 338.643 1435.83 342.727 1437.57 346.136C1439.31 349.51 1441.74 352.102 1444.86 353.913C1447.99 355.689 1451.65 356.577 1455.84 356.577C1458.64 356.577 1461.18 356.186 1463.45 355.405C1465.73 354.588 1467.7 353.398 1469.37 351.836C1471.03 350.273 1472.3 348.338 1473.15 346.03L1491.15 348.054C1490.02 352.812 1487.85 356.967 1484.65 360.518C1481.49 364.034 1477.44 366.768 1472.51 368.722C1467.57 370.639 1461.93 371.598 1455.57 371.598ZM1523.26 370V288.182H1541.96V301.818H1542.81C1544.3 297.095 1546.86 293.455 1550.48 290.898C1554.14 288.306 1558.31 287.01 1563 287.01C1564.07 287.01 1565.26 287.063 1566.57 287.17C1567.92 287.241 1569.04 287.365 1569.93 287.543V305.281C1569.11 304.996 1567.81 304.748 1566.04 304.535C1564.3 304.286 1562.61 304.162 1560.98 304.162C1557.46 304.162 1554.3 304.925 1551.5 306.452C1548.73 307.944 1546.54 310.021 1544.94 312.685C1543.35 315.348 1542.55 318.42 1542.55 321.9V370H1523.26Z" fill="black"/>
</svg>
